<svg version="1.2" xmlns="http://www.w3.org/2000/svg" viewBox="0 0 500 945" width="500" height="945">
	<style>
		.s0 { fill: #000000 } 
	</style>
	<path id="rect4228" class="s0" d="m314.43 0.32q-7.42-0.03-14.84 0.65c-8.21-0.08-16.36 1.52-24.16 4.03-20.23 6.9-38.19 19.08-54.66 32.46-5.24 4.09-9.84 8.96-15.34 12.71-16.17 9.54-32.37 19.45-46.07 32.43-16.78 15.33-29.43 35.35-34.72 57.56-1.01 4.62-2.87 9.32-2.35 14.11 0.65 2.18 3-0.17 3.88-1.02 11.4-13.14 19.68-28.74 31.64-41.44 3.9-3.68 8.43-6.61 12.98-9.42 17.73-10.64 36.69-19.47 56.63-25.06 14.61-4.26 29.73-0.42 44.49 0.35 10.96 6.31 22.81 16.95 21.22 30.89-13.15 3.38-26.2 7.39-38.46 13.25-17.09 8.13-33.29 20.92-40.1 39.14-1.13 0.09-2.25 0.35-3.31 0.73-13.31 2.34-26.23 8.77-35.32 18.95-15 16.53-18.43 41.28-11.74 62.15-0.04 2.93-1.31 5.76-1.48 8.72-2.84 14.61-5.32 29.29-7.56 44-3.54 24.45-7.7 49.16-6.11 73.95-8.85 9.25-15.26 20.41-21.5 31.52-11.98 22.01-24.47 43.78-38.44 64.61-5.65 8.31-8.71 18.13-14.76 26.2-5.54-0.61-11.07-1.32-16.56-2.3 0.14-118.05-0.09-236.13 0.11-354.2 2.49-3.66 5.53-7.22 6.34-11.74 4.19-16.1 12.61-30.61 18.75-45.96 1.94-4.86 3.71-10.53 1.41-15.56-0.3-0.78-0.93-1.13-1.62-1.14-0.68-0.02-1.41 0.28-1.9 0.81-4.07 4.16-5.8 9.86-8.03 15.1-4.92 11.82-13.29 21.69-22.07 30.84-2.3 2.82-6.06 6.09-4.89 10.13 0.89 3.06-0.26 6.21-1.63 8.94-5.64 10.13-14.09 18.57-18.72 29.29-0.73 1.55 0.11 3.5 1.98 3.16 10.16-1.91 17.61-10.79 24.63-17.06 0.05 115.47-0.02 230.96 0.04 346.43-4.12-0.93-8.15-2.37-12.04-4.06q-0.63-0.03-1.26-0.04c-8.51 0.06-16.44 7.11-25.07 3.82-3.87-2.38-10.26-3.33-12.93 1.18-1.26 2.38 0.9 4.9 3.07 5.71 7.8 3.23 16.23 4.41 24.33 6.56-7.93 2.79-15.89 5.88-22.84 10.71-3.42 2.18-5.14 7.64-1.97 10.77 2.92 2.97 7.3 2.38 11.06 2.34 5.73 8.7 11.44 17.48 18.38 25.28 2.53 2.5 4.93 5.59 8.5 6.57 4.14 0.4 7.59-2.38 10.54-4.9 0.48 99.78 0.06 199.59 0.21 299.39-8.45 1.08-16.55 5.65-21.17 12.91-5.14 7.66-6.2 17.84-2.75 26.38 2.35 6.46 7.81 11.03 11.12 16.94 3.51 6 7.73 12.85 5.87 20.08-0.75 2.69-5.14 1.14-5.38 4.09-0.62 2.5 2.25 4.18 4.37 3.15 5.55-0.96 8.05-7.6 7.07-12.64-1.4-10.1-7.48-18.72-13.52-26.63-3.86-4.45-6.29-10.36-5.81-16.33-0.03-10.25 7.91-19.68 17.88-21.77 10.78-2.8 22.89 3.62 26.74 14.06 3.32 7.87 1.45 17.4-4.09 23.84-6.29 8.09-12.52 17.09-13.85 27.52-0.36 4.88 1.65 10.91 7.1 11.97 2.16 0.99 5.17-0.79 4.48-3.29-0.45-2.2-3.18-2.02-4.75-2.85-2.29-3.45-0.95-7.8 0.19-11.4 2.98-7.74 8.04-14.39 13.05-20.89 7.55-10.43 6.59-25.85-2.03-35.36-4.76-5.47-11.64-8.97-18.85-9.74-0.01-101.85-0.05-203.69 0.02-305.53 0.06-0.06 0.18-0.22 0.24-0.3 16.76-5.55 33-16.93 39.85-33.72 0.91 0.29 1.6-0.18 2.04-0.89 6.96-9.29 14.03-18.5 20.85-27.9 22.76-30.22 45.23-60.73 66.91-91.78 6-9.61 14.02-18.5 16.7-29.81 5-19.86 7.62-40.24 10.37-60.51 1.6-12.47 3.15-24.95 4.47-37.45 2.8 7.7 6.04 15.22 9.23 22.76 7.15 17.09 10.67 35.4 13.59 53.59 3.24 21.22 5.94 42.56 7.61 63.96l0.04 0.2c-2.32 12.6-3.99 25.3-5.9 37.98-7.8 55.32-15.16 110.72-22.34 166.14-0.63 1.99 1.96 1.63 3.16 2.16-2.65 13.79-5.61 27.59-6.39 41.64 0.15 4.1-0.1 8.73 2.5 12.19 2.4 2.87 2.52 6.77 3.28 10.26 2.19 17.6 1.82 35.36 1.83 53.06-0.72 33.64-2.59 67.31-6.27 100.78-1.95 15.96-3.94 31.99-8.02 47.58-0.19 1.22-1.39 1.75-2.26 2.46-13.31 9.9-26.26 20.52-40.82 28.57-14.72 5.75-29.49 14.31-45.81 12.93-4.63 0.73-5.86 6.87-3.06 10.14 4.86 6.14 13.33 7.31 20.66 7.88 28.18 1.3 56.43 3.05 84.62 1.34 10.69-2.21 22.11 1.61 32.42-2.76 6.34-2.68 8.98-9.84 9.14-16.26 0.35-16.19-5.99-31.54-13-45.82 13.25-45.79 24.69-92.23 31.42-139.48 3.27-24.91 5.69-50.26 2.26-75.29 1.5-15.21 4.65-30.22 7.11-45.28 7.13-0.23 14.29-0.33 21.42-0.77 5.57 16.99 10.71 34.18 17.38 50.8 1.93 4.78 4.11 9.51 7.48 13.44 4.84 8.92 8.01 18.63 11.5 28.12 14.74 43.11 27.28 87 37.4 131.41 3.03 14.14 6.08 28.33 7.12 42.78 0.14 0.61-0.53 0.95-0.94 1.28-14.02 9.43-27.64 19.71-42.84 27.23-12.32 4.61-24.64 9.88-37.81 11.42-3.68 0.85-7.68-1.77-11.08 0.45-3.45 2.23-3.09 7.35-0.59 10.14 4.43 4.96 11.24 6.56 17.52 7.58 18.44 1.91 36.91 3.49 55.41 4.63 12.14 0.41 24.33 1.71 36.46 0.31 9.35-0.12 19.31 2.68 28.2-1.28 8.19-3.97 9.81-14.57 8.47-22.72-2.58-18.01-10.14-34.86-18.03-51.09 0.02-48.11-1.97-96.5-10.02-144.05-2.78-16.1-6.36-32.11-11.75-47.56-4.04-11.52-9.14-22.86-16.8-32.45 1.19-11.85-0.37-23.74-1.31-35.55 0.92-0.04 1.81-0.22 2.73-0.32 0.79 0.12 2.21-0.18 1.42-1.42-0.63-6.43-1.58-12.81-2.36-19.23 9.68-1.48 17.54-8.41 24.88-14.41q-0.37 2.03-0.83 4.07c-6.49 5.81-8.54 15.26-6.06 23.47-0.81 3.43-1.79 9.14 2.99 9.71 3.09 8.6 7.82 16.93 14.71 23.09-5.44 0.47-10.95 1.06-16.4 0.75-3.43-0.55-6.81-4.24-10.38-2.94-0.29 4.1-0.27 8.37 0.24 12.51 0.04 1.26 1.48 2.16 2.64 1.59 8.58-3.5 18.13-2.97 27.24-3.43-1.24 17.11-0.88 34.6-3.72 51.41 3.17 3.09 8.49 0.59 12.38 1.26 3.15-0.26 10.06 0.9 9.81-4.19-3.25-16.01-4.41-32.39-5.95-48.63 8.29 0.41 16.62 0.55 24.81 1.99 2.2 0.41 4.29 2.38 6.65 1.35 1.69-3.36 0.35-7.4 0.92-10.96 0-1.03 0.52-2.95-0.94-3.25-4.33 0.04-7.74 3.94-12.17 3.43-4.46-0.14-8.91-0.52-13.34-0.87 7.1-6.44 11.77-15.1 15.08-24 2.22-6.71 4.82-14.19 2.93-21.2 2.2-11.86 3.96-23.92 3.56-36.03-0.04-5.79-2.81-11.05-2.4-16.87-0.18-11.95-0.39-24.16-0.98-35.95 0.29-5.55-0.4-11.11-0.2-16.66-2.26-63.08-2.07-126.86-4.15-189.53-0.42-15.18-0.89-30.42-1.93-45.56 0.45-1.91 0.08-3.95 0.19-5.9 12.21 0.06 24.43 0.02 36.64 0 0.57-47.91-7.03-96.97-29.06-139.97-11.43-22.35-26.73-42.86-45.69-59.39-30.09-26.72-70.06-42.32-110.31-42.46zm-14.06 0.79q0.68 0.14 1.32 0.34-0.64-0.2-1.32-0.34zm-61.87 41.58c3.11-0.06 5.89 3.05 4.87 6.2-0.65 3.68-6.05 4.82-8.37 2.04-2.48-2.38-1.2-7.23 2.19-8.01q0.65-0.22 1.31-0.23zm158.19 212c0.71 1.49 1.01 3.13 1.46 4.7q5.63 20.47 10.59 41.11c4.72 21.77 9.72 43.74 9.8 66.15-1.2 12.07-0.04 24.2 0.97 36.24 3.13 32.27 7.58 64.4 12.34 96.45 1.59 10.91 3.09 21.84 5 32.68-0.18 0.48-0.26 1.07-0.85 1.24-7.89 4.28-16.53 7.09-24.31 11.64-2.16 1.34-4.76 2.91-5.12 5.71-1.39 6.5-3.3 12.89-4.29 19.49-3.36 3.7-6.69 7.48-10.02 11.2-10.15-68.37-26.14-135.74-42.56-202.86 8-19.51 16.34-39.02 21.95-59.41 6.76-22.04 16.13-43.14 25.04-64.34zm-356.34 244.22q0.29-0.02 0.58 0-0.29-0.02-0.58 0zm387.25 100.15c10.08 1.81 20.33 2.84 30.59 2.66-2.54 8.6-6.95 18.56-16.02 21.65-10.24 1.05-15.32-10.45-18.74-18.27 1.26-2.08 2.16-4.54 4.17-6.04z"/>
</svg>